<svg width="50" height="50" viewBox="0 0 50 50" fill="none" xmlns="http://www.w3.org/2000/svg">
<path d="M25 4.16675C13.5 4.16675 4.16669 13.5001 4.16669 25.0001C4.16669 36.5001 13.5 45.8334 25 45.8334H35.4167V41.6668H25C15.9584 41.6668 8.33335 34.0417 8.33335 25.0001C8.33335 15.9584 15.9584 8.33342 25 8.33342C34.0417 8.33342 41.6667 15.9584 41.6667 25.0001V27.9792C41.6667 29.6251 40.1875 31.2501 38.5417 31.2501C36.8959 31.2501 35.4167 29.6251 35.4167 27.9792V25.0001C35.4167 19.2501 30.75 14.5834 25 14.5834C19.25 14.5834 14.5834 19.2501 14.5834 25.0001C14.5834 30.7501 19.25 35.4167 25 35.4167C27.875 35.4167 30.5 34.2501 32.375 32.3542C33.7292 34.2084 36.0625 35.4167 38.5417 35.4167C42.6459 35.4167 45.8334 32.0834 45.8334 27.9792V25.0001C45.8334 13.5001 36.5 4.16675 25 4.16675ZM25 31.2501C21.5417 31.2501 18.75 28.4584 18.75 25.0001C18.75 21.5417 21.5417 18.7501 25 18.7501C28.4584 18.7501 31.25 21.5417 31.25 25.0001C31.25 28.4584 28.4584 31.2501 25 31.2501Z" fill="white" fill-opacity="0.9"/>
</svg>
