<svg width="80" height="80" viewBox="0 0 80 80" fill="none" xmlns="http://www.w3.org/2000/svg">
<path d="M51.8015 21.865H28.5154C24.7966 21.865 21.7747 24.8869 21.7747 28.6056V51.8881C21.7747 55.6069 24.7965 58.633 28.5154 58.633H51.8016C55.5162 58.633 58.5424 55.6069 58.5424 51.8881V28.6056C58.5422 24.8867 55.5162 21.865 51.8015 21.865ZM40.1563 52.3514C33.4837 52.3514 28.0521 46.9197 28.0521 40.247C28.0521 33.5744 33.4838 28.1428 40.1563 28.1428C46.8332 28.1428 52.2605 33.5744 52.2605 40.247C52.2605 46.9197 46.829 52.3514 40.1563 52.3514ZM52.6516 30.6456C51.0705 30.6456 49.7871 29.3626 49.7871 27.7816C49.7871 26.2042 51.0705 24.917 52.6516 24.917C54.2283 24.917 55.5162 26.2042 55.5162 27.7816C55.5162 29.3626 54.2283 30.6456 52.6516 30.6456Z" fill="white"/>
<path d="M40.1563 33.26C36.3057 33.26 33.1691 36.3924 33.1691 40.247C33.1691 44.1019 36.3057 47.2385 40.1563 47.2385C44.0112 47.2385 47.1477 44.1019 47.1477 40.247C47.1477 36.3964 44.0112 33.26 40.1563 33.26Z" fill="white"/>
<path d="M40.1563 1.07837C18.5829 1.07837 1.09381 18.5674 1.09381 40.1409C1.09381 61.7143 18.5829 79.2034 40.1563 79.2034C61.7298 79.2034 79.2188 61.7143 79.2188 40.1409C79.2188 18.5676 61.7298 1.07837 40.1563 1.07837ZM63.6551 51.8882C63.6551 58.429 58.3383 63.7459 51.8016 63.7459H28.5154C21.9788 63.7459 16.6577 58.4291 16.6577 51.8882V28.6057C16.6577 22.0696 21.9788 16.7485 28.5154 16.7485H51.8016C58.3383 16.7485 63.6551 22.0696 63.6551 28.6057V51.8882Z" fill="white"/>
</svg>
