<svg width="80" height="80" viewBox="0 0 80 80" fill="none" xmlns="http://www.w3.org/2000/svg">
<g clip-path="url(#clip0)">
<path d="M40.0007 79.9993C62.0919 79.9993 80.0004 62.0908 80.0004 39.9996C80.0004 17.9085 62.0919 0 40.0007 0C17.9095 0 0.00106049 17.9085 0.00106049 39.9996C0.00106049 62.0908 17.9095 79.9993 40.0007 79.9993Z" fill="white"/>
<path d="M64.5016 28.7465C62.7875 29.5066 60.9436 30.0207 59.0098 30.2503C60.9842 29.0673 62.4994 27.1956 63.2146 24.9617C61.3671 26.0576 59.32 26.8527 57.1431 27.2812C55.399 25.4238 52.9141 24.2629 50.1625 24.2629C44.8832 24.2629 40.6015 28.5447 40.6015 33.824C40.6015 34.5734 40.6863 35.3028 40.8503 36.003C32.9043 35.6044 25.8589 31.7983 21.1429 26.012C20.32 27.4238 19.848 29.0673 19.848 30.8193C19.848 34.1356 21.5372 37.0633 24.1012 38.7774C22.5347 38.7282 21.0594 38.2983 19.771 37.5802C19.7703 37.6209 19.7703 37.6615 19.7703 37.7014C19.7703 42.334 23.0673 46.1979 27.4404 47.0757C26.6389 47.2953 25.7925 47.4115 24.9219 47.4115C24.3044 47.4115 23.7062 47.3523 23.123 47.2411C24.3394 51.0387 27.8696 53.8031 32.0544 53.8808C28.7816 56.4456 24.6595 57.9736 20.1788 57.9736C19.4088 57.9736 18.6458 57.9287 17.8993 57.8396C22.1283 60.5534 27.1551 62.1356 32.5542 62.1356C50.1404 62.1356 59.7578 47.5669 59.7578 34.9313C59.7578 34.517 59.7485 34.1042 59.73 33.6949C61.5996 32.3473 63.2203 30.6638 64.5016 28.7465Z" fill="#005CF8"/>
</g>
<defs>
<clipPath id="clip0">
<rect width="80" height="80" fill="white"/>
</clipPath>
</defs>
</svg>
